<svg xmlns="http://www.w3.org/2000/svg" viewBox="0 0 20 20" fill="currentColor" aria-hidden="true" focusable="false" role="img">
  <path fill-rule="evenodd" d="M1.552 13.917l6.1-10.558c1.052-1.812 3.66-1.812 4.712 0l6.088 10.558c1.04 1.812-.266 4.083-2.355 4.083H3.907c-2.089 0-3.406-2.271-2.355-4.083zM9.965 11.7c-.46-.024-.846-.398-.858-.857L8.9 7.363c0-.29.097-.567.29-.785.194-.217.472-.338.761-.35.64 0 1.124.46 1.148 1.051l-.193 3.564a.893.893 0 01-.894.857h-.048zM10 15.252c-.713 0-1.293-.58-1.293-1.293s.58-1.293 1.293-1.293c.712 0 1.292.58 1.292 1.293 0 .725-.58 1.293-1.292 1.293z" clip-rule="evenodd"/>
</svg>
