<svg xmlns="http://www.w3.org/2000/svg" aria-hidden="true" viewBox="0 0 24 24" fill="currentColor" focusable="false" role="img">
  <path fill-rule="evenodd" d="M1.78 6.47c-.03.29.21.53.5.53h19.45c.28 0 .52-.24.5-.53C21.93 2.72 17.23 1 12 1S2.07 2.72 1.78 6.47zM4.75 23h14.5c1.66 0 3-1.34 3-3v-1c0-.28-.22-.5-.5-.5H2.25c-.28 0-.5.22-.5.5v1c0 1.66 1.34 3 3 3zm16.75-6h-19c-.55 0-1-.45-1-1v-1.5c0-.55.45-1 1-1h19c.55 0 1 .45 1 1V16c0 .55-.45 1-1 1zm-19-5h19c.55 0 1-.45 1-1V9.5c0-.55-.45-1-1-1h-19c-.55 0-1 .45-1 1V11c0 .55.45 1 1 1z" clip-rule="evenodd"/>
</svg>
