<svg xmlns="http://www.w3.org/2000/svg" viewBox="0 0 32 24" fill="currentColor" aria-hidden="true" focusable="false" role="img">
  <path fill-rule="evenodd" d="M30.455 6.185c0-1.69-.97-2.539-2.91-2.539-1.99 0-2.98.822-2.98 2.474 0 1.394.29 3.065.87 5.012.41 1.348.8 2.244 1.16 2.687.25.295.55.443.91.443s.66-.148.91-.444c.38-.452.76-1.338 1.16-2.686.59-1.938.88-3.59.88-4.947zm-.88 9.849c-.52-.434-1.2-.646-2.03-.646-.88 0-1.59.212-2.12.637-.56.452-.84 1.07-.84 1.855 0 .757.28 1.366.84 1.828.51.434 1.21.646 2.08.646.86 0 1.55-.212 2.07-.646.56-.462.84-1.071.84-1.837s-.28-1.375-.84-1.837zM4.795 19.8h14.5c1.66 0 3-1.237 3-2.77v-.922c0-.259-.22-.462-.5-.462h-19.5c-.28 0-.5.203-.5.462v.923c0 1.532 1.34 2.769 3 2.769zM2.325 9.646c-.29 0-.53-.221-.5-.49.29-3.46 4.98-5.048 10.22-5.048s9.93 1.587 10.23 5.049c.02.258-.22.49-.5.49H2.325zm.22 4.615h19c.55 0 1-.415 1-.922v-1.385c0-.508-.45-.923-1-.923h-19c-.55 0-1 .415-1 .923v1.384c0 .508.45.924 1 .924z" clip-rule="evenodd"/>
</svg>
