<svg xmlns="http://www.w3.org/2000/svg" aria-hidden="true" viewBox="0 0 156 40" fill="currentColor" focusable="false" role="img">
  <path fill-rule="evenodd" d="M28.85 8.838c-.038.362.262.662.625.662h24.312c.35 0 .65-.3.625-.662C54.037 4.15 48.162 2 41.625 2 35.087 2 29.212 4.15 28.85 8.838zm3.712 29.725h18.126a3.745 3.745 0 003.75-3.75v-1.25a.619.619 0 00-.626-.626H29.439a.619.619 0 00-.625.626v1.25a3.745 3.745 0 003.75 3.75zm-25.5-20.1L3.65 13.536A58.25 58.25 0 012.7 12.1c-.325-.487-.6-.813-.813-.963a2.416 2.416 0 00-.7-.312c-.412-.125-.687-.25-.825-.387C.126 10.188 0 9.812 0 9.325c0-.6.138-1.013.4-1.238.2-.175.525-.25.987-.25.063 0 .725.038 1.963.113C4 7.987 5.088 8 6.6 8c1.563 0 3.412-.05 5.525-.163h.162c.513 0 .9.088 1.138.275.313.225.462.638.462 1.238s-.1 1.013-.312 1.225c-.125.125-.512.288-1.137.475-.363.1-.538.25-.538.45 0 .125.175.5.525 1.113l1.4 2.6c.313.574.6.862.875.862.25 0 .575-.288.963-.862l2.187-3.225c.15-.226.225-.413.225-.588 0-.238-.238-.45-.7-.638-.663-.274-1-.8-1-1.587 0-.9.413-1.35 1.238-1.35.05 0 .216.008.502.022l.86.04c.5.038 1.275.05 2.313.05.887 0 1.562-.012 2.012-.05l.071-.003c.648-.036 1.074-.06 1.292-.06.674.001 1.012.388 1.012 1.163 0 .475-.1.838-.3 1.075a.9.9 0 01-.45.338l-.613.225c-.3.1-.612.325-.95.688-.087.1-.6.774-1.537 2.05l-3.4 4.512c-.863 1.175-1.35 1.938-1.45 2.3-.125.5-.188 1.113-.175 1.837v1.725c0 .863.05 1.45.137 1.775.088.275.213.488.4.625.038.05.213.15.526.3.375.188.65.4.787.638.175.275.275.662.275 1.162 0 .625-.163 1.038-.475 1.25-.238.163-.637.238-1.188.238-.079 0-.453-.019-1.114-.051l-.998-.049a57.117 57.117 0 00-2.513-.063c-.875 0-2.274.05-4.175.163h-.274c-.526 0-.926-.075-1.176-.238-.312-.2-.474-.612-.474-1.225 0-.487.087-.85.274-1.075.163-.212.425-.4.788-.575.513-.224.813-.5.925-.837.088-.387.137-1.287.137-2.688V22c0-.863-.075-1.45-.237-1.725-.025-.063-.163-.238-.425-.538-.175-.225-.5-.65-.938-1.274zm23.913 2.713l6.438-1.475c.612-.138 1-.3 1.175-.5.237-.263.362-.625.362-1.075 0-1.3-.537-2.5-1.612-3.638-1.463-1.537-3.438-2.312-5.9-2.312-2.288 0-4.325.725-6.075 2.162a8.647 8.647 0 00-2.413 3.15c-.562 1.238-.837 2.588-.837 4.038 0 .912.1 1.787.312 2.65.4 1.65 1.088 2.95 2.063 3.925 1.35 1.337 3.187 2 5.512 2a12.27 12.27 0 003.613-.538c1.975-.612 3.45-1.562 4.412-2.862.6-.813.9-1.55.9-2.225 0-.313-.075-.563-.237-.763a.93.93 0 00-.788-.412c-.112 0-.237.025-.375.062-.137.038-.525.3-1.137.763-.95.712-1.963 1.062-3.05 1.062-1.125 0-2.063-.45-2.813-1.337-.712-.825-1.075-1.488-1.075-1.963 0-.187.1-.312.288-.4.087-.037.5-.137 1.237-.312zm.438-3.025l-1.825.512a2.359 2.359 0 01-.413.063c-.337 0-.512-.288-.512-.875a2.9 2.9 0 01.625-1.813c.425-.55.925-.825 1.512-.825.513 0 .938.238 1.275.7.3.413.45.788.45 1.163 0 .512-.375.875-1.112 1.075zm24.8.887v4.888c0 .487.012.787.037.925.062.25.212.375.462.375.125 0 .288-.025.475-.075.3-.088.513-.125.65-.125.4 0 .6.275.6.837 0 1.088-.625 2.025-1.862 2.813-1.438.912-3.1 1.362-4.963 1.362-.725 0-1.25-.137-1.6-.412-.337-.275-.625-.688-.837-1.225-.1-.238-.2-.363-.288-.363-.035 0-.081.033-.16.09l-.015.01c-1.675 1.275-3.4 1.9-5.175 1.9-1.275 0-2.262-.387-2.962-1.175-.613-.675-.925-1.612-.925-2.787 0-1.988.712-3.488 2.125-4.513.575-.4 1.462-.775 2.662-1.125l.426-.108c.39-.098 1.001-.253 1.824-.467 1.175-.3 1.863-.587 2.063-.887.15-.225.225-.725.225-1.513 0-1.262-.563-1.887-1.7-1.887-.788 0-1.588.287-2.363.875-.45.325-.962.887-1.575 1.662-.3.375-.525.65-.7.788-.262.225-.55.337-.875.337-.412 0-.775-.262-1.1-.775a3.385 3.385 0 01-.475-1.762c0-.725.213-1.35.638-1.863.612-.75 1.787-1.375 3.537-1.887 1.613-.463 3.338-.7 5.2-.7 2.638 0 4.45.612 5.463 1.825.8.962 1.187 2.612 1.187 4.962zm-7.763 3.4c-.45 0-.925.175-1.413.513-.55.387-.825.937-.825 1.637 0 .425.138.763.413 1.013.237.212.512.312.837.312 1.025 0 1.538-.9 1.538-2.687 0-.238-.013-.413-.038-.525-.025-.175-.2-.263-.512-.263zm12.05-8.563v8.863c-.013 1.35-.063 2.287-.125 2.812-.1.563-.388.988-.888 1.3-.412.225-.65.425-.75.6-.125.213-.187.488-.187.838 0 .962.487 1.45 1.462 1.45h.3c1.725-.113 2.975-.163 3.725-.163.738 0 1.475.025 2.225.063l1.163.061c.472.025.734.039.787.039.35 0 .613-.075.788-.213.262-.237.4-.637.4-1.225 0-.362-.063-.65-.163-.862-.087-.15-.3-.363-.625-.6-.425-.3-.675-.738-.75-1.3-.062-.488-.1-1.425-.112-2.788v-3.962c0-1.038.062-1.65.162-1.863.213-.4.65-.6 1.3-.6.788 0 1.45.3 1.988.9.575.625.862 1.563.862 2.813v2.712c-.012 1.363-.05 2.288-.112 2.788-.075.562-.313.987-.725 1.3-.338.237-.55.437-.638.6-.112.225-.162.512-.162.875 0 .937.4 1.412 1.187 1.412h.238c1.812-.112 3.1-.162 3.887-.162.763 0 1.538.025 2.313.062l1.105.056c.564.028.88.044.945.044.462 0 .787-.075.987-.212.3-.213.45-.588.45-1.125 0-.388-.075-.713-.225-.95-.1-.163-.362-.363-.787-.6-.3-.175-.488-.338-.588-.475-.162-.175-.275-.45-.35-.825-.162-.688-.237-1.625-.237-2.788V17.8c0-1.75-.588-3.075-1.763-4-1.287-1.012-2.675-1.525-4.175-1.525-.737 0-1.587.163-2.525.475-.525.163-1.312.5-2.362 1.013a.895.895 0 01-.338.1c-.187 0-.312-.125-.35-.363a21.191 21.191 0 01-.075-.887V7.85c0-.462-.025-.762-.062-.875-.138-.387-.45-.587-.95-.587-.175 0-.363.012-.588.05-2.475.4-4.675 1.137-6.637 2.2-.613.337-.925.787-.925 1.375 0 .487.15.837.45 1.062.062.05.237.15.537.3.475.238.738.575.813 1.013.062.337.1.837.1 1.487zM86.362 7.45C88.787 7.45 90 8.6 90 10.887c0 1.837-.362 4.075-1.1 6.7-.5 1.825-.975 3.025-1.45 3.637-.313.4-.688.6-1.138.6-.45 0-.825-.2-1.137-.6-.45-.6-.938-1.812-1.45-3.637-.725-2.65-1.1-4.913-1.1-6.788 0-2.225 1.25-3.35 3.737-3.35zm0 15.9c1.038 0 1.888.288 2.538.875.7.625 1.05 1.45 1.05 2.488 0 1.037-.35 1.862-1.05 2.487-.65.588-1.513.875-2.588.875-1.087 0-1.962-.287-2.6-.875-.7-.625-1.05-1.45-1.05-2.475 0-1.062.35-1.9 1.05-2.512.663-.563 1.55-.863 2.65-.863zM99.24 13.16v13.09h1.106v-1.822h.14c.132.299.32.605.563.92.243.312.562.574.959.787.4.213.899.32 1.495.32.801 0 1.505-.213 2.11-.64.609-.426 1.082-1.02 1.419-1.783.341-.763.511-1.651.511-2.665 0-1.01-.17-1.895-.511-2.653-.341-.763-.816-1.355-1.426-1.777-.609-.426-1.317-.64-2.122-.64-.601 0-1.099.107-1.496.32a2.938 2.938 0 00-.952.78 4.365 4.365 0 00-.55.908h-.102v-5.146H99.24zm1.476 10.298c-.234-.614-.351-1.317-.351-2.11 0-.784.117-1.476.351-2.077.235-.605.573-1.078 1.017-1.42.447-.344.99-.517 1.63-.517.656 0 1.21.18 1.662.537.451.354.792.833 1.022 1.438.235.605.352 1.285.352 2.04 0 .762-.117 1.45-.352 2.064-.234.614-.577 1.102-1.029 1.464-.452.358-1.003.537-1.655.537-.635 0-1.176-.173-1.624-.518-.443-.35-.784-.829-1.023-1.438zm15.565-7.025v6.066c0 .6-.132 1.108-.396 1.521-.265.41-.601.72-1.01.934-.409.213-.836.32-1.279.32-.707 0-1.287-.233-1.738-.698-.452-.468-.678-1.086-.678-1.853v-6.29h-1.138v6.36c0 .776.139 1.43.416 1.962.277.533.658.938 1.144 1.215.486.273 1.042.409 1.668.409.72 0 1.33-.166 1.828-.499a3.027 3.027 0 001.093-1.259h.09v1.63h1.138v-9.818h-1.138zm4.15 9.818v-9.818h1.106v1.508h.083c.196-.494.537-.892 1.023-1.195a3.067 3.067 0 011.662-.46 14.817 14.817 0 01.6.02v1.156a9.402 9.402 0 00-.268-.038 3.143 3.143 0 00-.416-.026c-.511 0-.967.109-1.367.326-.397.213-.71.51-.94.889a2.45 2.45 0 00-.345 1.297v6.341h-1.138zm8.105 3.624c.503.175 1.089.263 1.758.263.775 0 1.468-.13 2.077-.39a3.144 3.144 0 001.445-1.19c.354-.536.53-1.22.53-2.051V16.432h-1.112v1.873h-.115a4.69 4.69 0 00-.569-.908 2.846 2.846 0 00-.952-.78c-.396-.213-.895-.32-1.496-.32-.809 0-1.519.212-2.128.633-.61.422-1.085 1.01-1.426 1.765-.336.754-.505 1.628-.505 2.62 0 1.002.173 1.865.518 2.59.349.72.827 1.273 1.432 1.661.609.388 1.306.582 2.09.582.588 0 1.08-.098 1.477-.294.4-.196.724-.441.971-.735.247-.299.437-.597.569-.895h.102v2.212c0 .916-.268 1.591-.805 2.026-.533.434-1.234.652-2.103.652-.558 0-1.029-.08-1.413-.237a2.833 2.833 0 01-.927-.594 3.592 3.592 0 01-.562-.729l-.933.614c.191.37.46.705.805 1.003a3.77 3.77 0 001.272.703zm3.298-5.222c-.447.303-.986.454-1.617.454-.648 0-1.197-.16-1.649-.48-.452-.323-.795-.77-1.029-1.342-.234-.575-.352-1.238-.352-1.988 0-.737.115-1.404.346-2 .23-.601.571-1.079 1.022-1.432.452-.354 1.006-.53 1.662-.53.644 0 1.187.172 1.63.517.448.34.789.81 1.023 1.406.234.592.351 1.272.351 2.04 0 .788-.119 1.467-.357 2.038-.239.571-.582 1.01-1.03 1.317zm9.494 1.803c-.916 0-1.709-.213-2.378-.64-.669-.43-1.186-1.024-1.553-1.783-.362-.763-.543-1.64-.543-2.634 0-.988.181-1.866.543-2.633.367-.771.872-1.374 1.515-1.809.648-.439 1.396-.658 2.244-.658.532 0 1.046.098 1.54.294.494.192.938.488 1.33.888.396.396.709.897.939 1.502.23.601.345 1.313.345 2.135v.563h-7.311c.016.721.149 1.356.402 1.905.272.58.658 1.029 1.157 1.348.498.32 1.088.48 1.77.48.465 0 .872-.073 1.221-.218a2.585 2.585 0 001.438-1.393l1.081.352c-.15.413-.395.794-.736 1.144-.336.35-.758.63-1.265.843-.503.21-1.083.314-1.739.314zm-2.927-7.306a4.03 4.03 0 00-.394 1.527h6.14c0-.63-.128-1.197-.383-1.7a2.985 2.985 0 00-1.055-1.202c-.448-.294-.965-.44-1.553-.44-.623 0-1.17.165-1.643.498a3.422 3.422 0 00-1.112 1.316zm9.417-2.717v9.818h1.137v-6.34a2.412 2.412 0 011.285-2.187 2.825 2.825 0 011.368-.326c.149 0 .288.009.416.026s.217.03.268.038v-1.157a15.193 15.193 0 00-.601-.02c-.618 0-1.172.154-1.662.461-.485.303-.826.701-1.022 1.195h-.083v-1.508h-1.106z" clip-rule="evenodd"/>
</svg>
