<svg xmlns="http://www.w3.org/2000/svg" aria-hidden="true" aria-labelledby="yeah-burger-logo" viewBox="0 0 156 40" fill="currentColor" focusable="false" role="img">
  <path fill-rule="evenodd" d="M29.776 7.385c-.36 0-.656-.296-.619-.653C29.516 2.117 35.33 0 41.8 0c6.47 0 12.285 2.117 12.656 6.732a.62.62 0 01-.619.653H29.775zM50.77 36H32.83a3.697 3.697 0 01-3.71-3.692v-1.231a.61.61 0 01.618-.616h24.123c.347 0 .619.271.619.616v1.23A3.697 3.697 0 0150.77 36zM4.217 11.36l3.377 4.85c.433.614.755 1.033.928 1.255.26.295.396.467.42.529.161.27.236.849.236 1.698v1.071c0 1.378-.05 2.265-.136 2.646-.112.332-.409.603-.916.825-.359.172-.618.357-.78.566-.185.221-.271.578-.271 1.058 0 .604.16 1.01.47 1.206.247.16.643.234 1.163.234h.272c1.88-.11 3.266-.16 4.132-.16.816 0 1.645.025 2.486.062l.988.048c.654.032 1.025.05 1.103.05.544 0 .94-.073 1.175-.233.31-.21.47-.616.47-1.231 0-.492-.099-.874-.272-1.145-.136-.234-.408-.443-.78-.628-.308-.147-.482-.246-.519-.295-.185-.135-.309-.344-.396-.615-.086-.32-.136-.899-.136-1.748v-1.698c-.012-.714.05-1.317.173-1.81.1-.357.582-1.107 1.436-2.264l3.364-4.443c.928-1.256 1.436-1.92 1.522-2.019.334-.357.643-.578.94-.677l.607-.221a.89.89 0 00.445-.333c.198-.233.297-.59.297-1.058 0-.763-.334-1.145-1.002-1.145-.215 0-.638.023-1.278.058l-.07.004c-.446.037-1.114.05-1.992.05-1.027 0-1.794-.013-2.29-.05l-.85-.04a19.61 19.61 0 00-.498-.022c-.816 0-1.224.443-1.224 1.33 0 .775.334 1.292.99 1.563.457.184.692.393.692.627 0 .173-.074.357-.223.579l-2.165 3.175c-.383.566-.705.85-.952.85-.272 0-.557-.284-.866-.85l-1.386-2.56c-.346-.603-.52-.972-.52-1.095 0-.197.174-.345.533-.443.618-.185 1.002-.345 1.126-.468.21-.21.309-.615.309-1.206 0-.59-.149-.997-.458-1.219-.235-.184-.618-.27-1.126-.27h-.16c-2.091.11-3.922.16-5.469.16-1.496 0-2.573-.013-3.216-.05-1.225-.073-1.88-.11-1.942-.11-.458 0-.78.073-.978.246-.26.221-.396.627-.396 1.218 0 .48.124.85.36 1.096.135.135.407.258.816.381.272.074.507.185.693.308.21.148.482.468.804.948.334.516.643.984.94 1.415zm33.414 6.068l-6.37 1.453c-.73.172-1.139.27-1.226.307-.185.087-.284.21-.284.394 0 .468.359 1.12 1.064 1.933.742.873 1.67 1.316 2.783 1.316 1.077 0 2.079-.344 3.019-1.046.606-.455.99-.714 1.126-.75a1.46 1.46 0 01.37-.062c.322 0 .582.135.78.406.161.197.235.443.235.75 0 .665-.297 1.392-.89 2.192-.953 1.28-2.413 2.215-4.367 2.818-1.176.357-2.363.53-3.576.53-2.3 0-4.12-.653-5.455-1.97-.965-.96-1.646-2.24-2.042-3.865a10.77 10.77 0 01-.309-2.609c0-1.427.272-2.757.829-3.975a8.52 8.52 0 012.388-3.102c1.732-1.415 3.748-2.129 6.012-2.129 2.437 0 4.392.763 5.84 2.277 1.063 1.12 1.595 2.302 1.595 3.582 0 .443-.124.8-.359 1.058-.173.197-.556.357-1.163.492zm-7.744-1.021l1.806-.505c.73-.197 1.101-.554 1.101-1.058 0-.37-.148-.739-.445-1.145-.334-.455-.755-.69-1.262-.69-.581 0-1.076.272-1.497.813a2.846 2.846 0 00-.618 1.785c0 .578.173.861.507.861.099 0 .223-.024.408-.061zm26.35 5.181v-4.812c0-2.314-.383-3.938-1.175-4.886-1.002-1.194-2.795-1.797-5.406-1.797-1.843 0-3.55.234-5.146.69-1.732.504-2.895 1.12-3.501 1.858-.42.504-.631 1.12-.631 1.834 0 .64.16 1.218.47 1.735.322.505.68.763 1.089.763.321 0 .606-.11.866-.332.173-.136.395-.406.692-.776.607-.763 1.114-1.317 1.56-1.637.766-.578 1.558-.861 2.337-.861 1.126 0 1.683.615 1.683 1.858 0 .776-.075 1.268-.223 1.49-.198.295-.878.578-2.041.873-.814.21-1.42.363-1.805.46h-.001l-.421.107c-1.188.344-2.066.713-2.635 1.107-1.398 1.01-2.103 2.486-2.103 4.443 0 1.157.31 2.08.915 2.745.693.775 1.67 1.157 2.932 1.157 1.757 0 3.464-.616 5.122-1.871l.015-.01c.078-.056.123-.088.158-.088.087 0 .186.123.285.356.21.53.494.936.828 1.207.347.27.867.406 1.584.406 1.843 0 3.489-.443 4.911-1.342 1.225-.775 1.844-1.698 1.844-2.769 0-.554-.198-.825-.594-.825-.136 0-.346.037-.643.123a1.92 1.92 0 01-.47.074c-.248 0-.396-.123-.458-.369-.025-.135-.037-.43-.037-.91zm-9.08-.96c.483-.332.953-.504 1.398-.504.31 0 .483.086.507.258.025.111.038.283.038.517 0 1.76-.508 2.646-1.522 2.646-.322 0-.594-.098-.83-.307-.271-.247-.407-.579-.407-.997 0-.69.272-1.231.816-1.613zm13.324-.21v-8.725c0-.64-.037-1.133-.1-1.465-.074-.43-.333-.763-.803-.997-.297-.148-.47-.246-.532-.295-.297-.222-.446-.566-.446-1.046 0-.579.31-1.022.916-1.354 1.942-1.046 4.12-1.773 6.569-2.166a3.47 3.47 0 01.581-.05c.495 0 .804.197.94.579.038.11.062.406.062.861v4.69c.037.504.062.787.075.873.037.234.16.357.346.357a.888.888 0 00.334-.098c1.04-.505 1.819-.837 2.338-.997.928-.308 1.77-.468 2.5-.468 1.484 0 2.857.505 4.131 1.502 1.163.91 1.744 2.215 1.744 3.938v4.874c0 1.145.075 2.068.235 2.745.075.369.186.64.347.812.099.135.284.295.581.468.42.233.68.43.78.59.148.234.222.554.222.936 0 .53-.148.898-.445 1.108-.198.135-.52.209-.977.209-.065 0-.378-.016-.934-.044h-.001L77.85 27.2a47.804 47.804 0 00-2.289-.061c-.78 0-2.054.049-3.847.16h-.235c-.78 0-1.176-.468-1.176-1.391 0-.357.05-.64.161-.861.087-.16.297-.358.631-.591.408-.308.643-.726.718-1.28.061-.493.099-1.403.111-2.745v-2.67c0-1.232-.285-2.155-.854-2.77-.532-.59-1.187-.886-1.967-.886-.643 0-1.076.197-1.286.59-.1.21-.161.813-.161 1.834v3.902c.012 1.342.05 2.265.111 2.745.075.554.322.984.743 1.28.321.233.531.443.618.59.1.21.161.493.161.85 0 .578-.136.972-.396 1.206-.173.135-.433.21-.78.21-.052 0-.312-.015-.778-.04l-1.151-.06a44.278 44.278 0 00-2.202-.06c-.742 0-1.98.048-3.687.16h-.297c-.965 0-1.447-.48-1.447-1.429 0-.344.062-.615.185-.824.1-.172.334-.37.743-.591.495-.308.779-.726.878-1.28.062-.517.111-1.44.124-2.77zm25.862-9.259V24.25h1.106v-1.822h.14c.133.299.32.605.563.92.243.312.563.574.959.787.4.213.899.32 1.496.32.8 0 1.504-.214 2.109-.64.61-.426 1.082-1.02 1.419-1.783.341-.763.511-1.651.511-2.666 0-1.01-.17-1.894-.511-2.652-.34-.763-.816-1.355-1.425-1.777-.61-.426-1.317-.64-2.122-.64-.601 0-1.1.107-1.496.32-.392.209-.71.469-.953.78a4.371 4.371 0 00-.55.908h-.102v-5.146h-1.144zm1.477 10.298c-.235-.614-.352-1.317-.352-2.11 0-.784.117-1.476.352-2.077.234-.605.573-1.078 1.016-1.42.448-.344.99-.517 1.63-.517.656 0 1.21.179 1.662.537.452.354.793.833 1.023 1.438.234.605.351 1.285.351 2.04 0 .762-.117 1.45-.351 2.064-.235.614-.578 1.102-1.03 1.464-.451.358-1.003.537-1.655.537-.635 0-1.176-.173-1.624-.518-.443-.35-.784-.829-1.022-1.438zm15.564-7.025v6.066c0 .6-.132 1.108-.396 1.521-.264.41-.601.72-1.01.933a2.73 2.73 0 01-1.278.32c-.708 0-1.287-.232-1.739-.697-.452-.468-.677-1.086-.677-1.853v-6.29h-1.138v6.36c0 .775.138 1.43.415 1.962a2.9 2.9 0 001.144 1.215c.486.272 1.042.409 1.669.409.72 0 1.329-.166 1.828-.499a3.034 3.034 0 001.093-1.259h.089v1.63h1.138v-9.818h-1.138zm4.15 9.818v-9.818h1.106v1.508h.083c.196-.494.537-.892 1.023-1.195a3.067 3.067 0 011.662-.46 16.386 16.386 0 01.601.02v1.156a9.631 9.631 0 00-.269-.038 3.138 3.138 0 00-.415-.026c-.512 0-.967.109-1.368.326-.396.213-.71.51-.94.888-.23.38-.345.812-.345 1.298v6.341h-1.138zm8.105 3.624c.503.175 1.089.262 1.758.262.776 0 1.468-.13 2.078-.39a3.142 3.142 0 001.444-1.188c.354-.537.531-1.221.531-2.052V14.432h-1.112v1.873h-.115a4.74 4.74 0 00-.569-.908 2.85 2.85 0 00-.953-.78c-.396-.213-.895-.32-1.495-.32-.81 0-1.52.211-2.129.633-.609.422-1.085 1.01-1.425 1.765-.337.754-.505 1.627-.505 2.62 0 1.002.172 1.865.517 2.59.35.72.827 1.273 1.432 1.661.61.388 1.306.582 2.09.582.588 0 1.081-.098 1.477-.294.4-.196.724-.441.972-.735a3.89 3.89 0 00.568-.895h.103v2.211c0 .917-.269 1.592-.806 2.027-.532.434-1.233.652-2.103.652-.558 0-1.029-.08-1.412-.237a2.81 2.81 0 01-.927-.594 3.558 3.558 0 01-.563-.73l-.933.615c.192.37.46.705.805 1.003.346.298.77.533 1.272.703zm3.299-5.222c-.448.302-.987.454-1.617.454-.648 0-1.198-.16-1.65-.48-.451-.324-.794-.77-1.029-1.342-.234-.575-.351-1.238-.351-1.988 0-.737.115-1.404.345-2 .23-.601.571-1.079 1.023-1.432.451-.354 1.005-.53 1.662-.53.643 0 1.186.172 1.63.517.447.34.788.81 1.022 1.406.235.592.352 1.272.352 2.04 0 .787-.119 1.467-.358 2.038-.239.571-.582 1.01-1.029 1.317zm9.494 1.802c-.917 0-1.709-.213-2.378-.639-.669-.43-1.187-1.025-1.554-1.783-.362-.763-.543-1.64-.543-2.634 0-.988.181-1.866.543-2.633.367-.771.872-1.374 1.515-1.81.648-.438 1.396-.657 2.244-.657.533 0 1.046.098 1.54.294a3.72 3.72 0 011.33.888c.396.396.71.897.94 1.502.23.601.345 1.313.345 2.135v.563h-7.311c.015.721.149 1.356.401 1.904.273.58.658 1.03 1.157 1.35.499.319 1.089.479 1.771.479.464 0 .871-.073 1.22-.218a2.591 2.591 0 001.439-1.393l1.08.351a3.18 3.18 0 01-.735 1.145 3.75 3.75 0 01-1.266.843c-.503.21-1.082.314-1.738.314zm-2.928-7.306c-.228.471-.359.98-.394 1.528h6.14c0-.63-.127-1.197-.383-1.7a2.977 2.977 0 00-1.055-1.202c-.447-.294-.965-.44-1.553-.44-.622 0-1.17.165-1.643.498a3.421 3.421 0 00-1.112 1.316zm9.417-2.716v9.818h1.138v-6.34c0-.487.115-.92.345-1.299.23-.379.543-.675.94-.888.4-.217.856-.326 1.368-.326.149 0 .287.008.415.026.128.017.217.03.269.038v-1.157a16.386 16.386 0 00-.601-.02c-.618 0-1.172.154-1.662.461-.486.303-.827.701-1.023 1.195h-.083v-1.508h-1.106z" clip-rule="evenodd"/>
</svg>
